     <svg
        version="1.1"
        id="Layer_1"
        xmlns="http://www.w3.org/2000/svg"
        xmlns:xlink="http://www.w3.org/1999/xlink"
        x="0px"
        y="0px"
		width="100%"
		height="650"
        viewBox="0 0 980 980"
        enable-background="new 0 0 980 980"
        xml:space="preserve"
      >
        <path
          fill="none"
          opacity="1.000000"
          stroke="#000000"
          stroke-linecap="round"
          stroke-linejoin="round"
          stroke-width="6.000000"
          d="
M433.000000,571.000000 
	C423.098724,561.454956 412.426666,552.914185 400.507660,545.986816 
	C399.242401,545.251465 398.160522,544.495178 396.502045,544.439148 
	C372.674011,543.633362 348.847778,542.270142 325.003815,543.108215 
	C316.495911,543.407288 307.958893,542.866638 299.513702,543.648071 
	C293.497894,544.204712 287.467224,544.000305 281.514801,544.638245 
	C276.364716,545.190063 272.209778,548.875793 268.101562,551.650391 
	C247.871704,565.313110 230.094711,581.614258 217.017151,602.510742 
	C207.171021,618.243652 200.439499,635.153931 196.886948,653.478088 
	C193.261993,672.175903 193.003616,690.855896 196.107239,709.482117 
	C200.449036,735.539246 210.109589,759.536560 226.531631,780.475220 
	C236.240189,792.853943 247.632202,803.656555 258.943909,814.558167 
	C279.428955,834.300537 298.638672,855.236511 312.906006,880.054016 
	C323.146942,897.867737 329.832092,917.117554 332.993561,937.500977 
	C333.486328,940.678345 334.345886,943.799255 336.073303,946.452271 
	C337.734375,949.003113 340.113586,949.566833 342.502625,947.002441 
	C344.624603,944.724670 345.902557,942.133667 346.563293,939.013428 
	C348.700928,928.918640 354.606567,920.379700 358.594635,911.040405 
	C365.592316,894.653320 376.222504,880.368530 386.597107,866.070435 
	C403.234680,843.140808 420.528229,820.687622 437.426331,797.945251 
	C438.387421,796.651672 439.211670,796.423340 440.500000,796.500000 
"
        />
        <path
          fill="none"
          opacity="1.000000"
          stroke="#000000"
          stroke-linecap="round"
          stroke-linejoin="round"
          stroke-width="5.000000"
          d="
M489.500000,310.500000 
	C504.515594,322.916229 521.236633,332.646118 538.507690,341.485046 
	C553.303955,349.057404 568.264832,356.313232 582.977173,364.043427 
	C605.580078,375.919373 626.863770,389.728058 643.957458,409.037659 
	C657.087402,423.869690 665.569336,441.184235 670.012634,460.497101 
	C673.345032,474.981873 674.452332,489.675964 675.106384,504.495300 
	C675.989868,524.514221 674.679382,544.498901 674.957886,564.500610 
	C675.055298,571.496887 674.666626,578.500000 674.500000,585.500000 
"
        />
        <path
          fill="none"
          opacity="1.000000"
          stroke="#000000"
          stroke-linecap="round"
          stroke-linejoin="round"
          stroke-width="5.000000"
          d="
M477.000000,255.500000 
	C484.222992,256.168701 490.813019,259.289795 497.423309,261.709503 
	C520.349182,270.101562 543.481262,277.885834 566.496521,286.009827 
	C592.344910,295.133850 618.358337,303.835266 643.931885,313.677063 
	C660.663330,320.116028 676.404236,328.966858 689.426331,341.576050 
	C704.309326,355.987061 715.902588,372.836914 724.006226,391.997375 
	C730.656311,407.720856 735.173279,423.966003 737.084106,440.990570 
	C738.301086,451.833344 739.051758,462.517120 738.234497,473.517426 
	C736.954102,490.750244 732.842468,507.051178 726.554565,523.021484 
	C720.082336,539.459839 711.156860,554.397400 699.949097,567.957886 
	C694.240173,574.865173 687.969604,581.306458 682.033630,588.029663 
	C681.164795,589.013733 680.465576,588.994568 679.500000,588.500000 
"
        />
        <path
          fill="none"
          opacity="1.000000"
          stroke="#000000"
          stroke-linecap="round"
          stroke-linejoin="round"
          stroke-width="5.000000"
          d="
M369.500000,594.500000 
	C384.307037,616.642883 394.208984,640.707825 399.136566,666.974365 
	C401.752136,680.916870 403.471130,694.923157 403.329926,708.998291 
	C403.142822,727.656189 401.093475,746.172119 397.133514,764.528809 
	C391.845642,789.041199 384.204956,812.733459 375.033630,836.013245 
	C367.776367,854.434509 360.032928,872.634949 351.516174,890.507690 
	C351.386719,890.779358 351.500000,891.166687 351.500000,891.500000 
"
        />
        <path
          fill="none"
          opacity="1.000000"
          stroke="#000000"
          stroke-linecap="round"
          stroke-linejoin="round"
          stroke-width="5.000000"
          d="
M739.000000,444.000000 
	C743.528259,442.910461 743.215454,438.372467 744.318237,435.431854 
	C754.093262,409.366364 758.531128,382.297638 756.869385,354.507812 
	C755.712463,335.160583 753.004517,316.007996 746.598694,297.465912 
	C738.987549,275.435089 725.311279,259.265076 704.020935,249.454559 
	C684.684937,240.544647 664.238586,235.602905 643.504700,231.476517 
	C626.134949,228.019669 608.541809,226.164032 590.988770,224.095093 
	C580.883911,222.904053 570.657349,222.784027 560.502075,221.974091 
	C542.693115,220.553726 524.855469,219.958694 507.005646,219.337479 
	C498.007782,219.024338 489.566040,215.677780 481.974792,210.537216 
	C480.088196,209.259674 478.381592,206.843124 475.520294,208.390732 
	C475.143402,210.577042 476.932037,211.319290 478.003906,212.496460 
	C481.356110,216.178085 481.564789,220.046783 477.919220,223.412521 
	C475.942047,225.237946 475.447144,227.033646 475.461792,229.500229 
	C475.542023,242.999756 475.145447,256.511292 475.575256,269.997589 
	C476.419830,296.499878 475.725739,323.000641 475.979248,349.500214 
	C476.000946,351.765869 476.209991,353.733948 477.949310,355.548584 
	C480.836914,358.561218 482.186096,361.331848 478.442902,365.953766 
	C475.850677,369.154572 475.497375,372.710419 475.498169,376.500000 
	C475.502197,395.333344 475.500000,414.166656 475.500000,433.000000 
	C475.500000,450.666656 475.497009,468.333344 475.503662,486.000000 
	C475.504517,488.212891 475.505859,490.149536 477.409119,492.089172 
	C481.851837,496.616730 481.655670,499.353424 477.503113,504.502502 
	C476.980316,505.150787 476.500000,505.833344 476.000000,506.500000 
"
        />
        <path
          fill="none"
          opacity="1.000000"
          stroke="#000000"
          stroke-linecap="round"
          stroke-linejoin="round"
          stroke-width="5.000000"
          d="
M479.500000,119.500000 
	C482.941437,121.651726 486.863434,120.478645 490.515076,120.852798 
	C502.474915,122.078186 514.512573,122.518730 526.496704,123.539009 
	C540.177734,124.703751 553.831848,126.181747 567.500305,127.496918 
	C597.790710,130.411438 626.179199,138.423981 649.964661,158.541748 
	C653.551453,161.575424 656.538513,165.310562 660.052429,168.441162 
	C661.892639,170.080582 660.912354,171.784195 661.000000,173.500000 
"
        />
        <path
          fill="none"
          opacity="1.000000"
          stroke="#000000"
          stroke-linecap="round"
          stroke-linejoin="round"
          stroke-width="5.000000"
          d="
M475.750000,208.000000 
	C475.268250,194.496506 475.309235,180.996246 476.107666,167.408325 
	C477.527405,166.114014 478.782959,167.365417 479.988159,168.021729 
	C489.943451,173.442841 500.793610,172.562195 511.497345,172.359680 
	C512.738831,172.336182 514.180420,172.030014 515.499817,172.035706 
	C535.556946,172.121948 555.508545,170.195877 575.502808,169.048615 
	C593.983704,167.988190 612.526672,167.076035 630.988647,168.634445 
	C646.679810,169.958939 662.262268,172.689651 676.473755,180.050659 
	C692.150940,188.170837 703.979126,200.420288 713.008057,215.495193 
	C721.609619,229.856598 727.463806,245.301682 731.560303,261.484741 
	C732.159973,263.853790 732.234802,265.915497 731.000000,268.000000 
"
        />
        <path
          fill="none"
          opacity="1.000000"
          stroke="#000000"
          stroke-linecap="round"
          stroke-linejoin="round"
          stroke-width="3.000000"
          d="
M341.500000,242.500000 
	C351.813507,250.852173 359.576508,260.991760 362.963196,274.009583 
	C365.431549,283.497437 364.977814,292.574890 357.471771,299.971344 
	C354.340088,303.057281 350.737183,304.551270 345.974945,303.629364 
	C341.220856,302.709076 336.406982,304.438080 334.667999,309.063171 
	C331.653168,317.081390 325.977356,320.857239 317.994934,321.429382 
	C307.896973,322.153168 298.884705,319.799469 292.468719,311.022858 
	C287.633423,304.408508 285.444977,296.934418 283.904999,289.018494 
	C282.372131,281.139069 283.364624,273.339752 283.500000,265.500000 
"
        />
        <path
          fill="none"
          opacity="1.000000"
          stroke="#000000"
          stroke-linecap="round"
          stroke-linejoin="round"
          stroke-width="8.000000"
          d="
M481.000000,627.500000 
	C475.240540,620.772217 475.391541,612.721069 475.434509,604.499634 
	C475.597229,573.333801 475.440887,542.166382 475.587524,511.000397 
	C475.602905,507.730957 474.568726,506.076660 471.499512,506.038605 
	C462.667542,505.929199 453.833130,505.973236 445.000336,506.043610 
	C444.164398,506.050232 443.333344,506.666687 442.500000,507.000000 
"
        />
        <path
          fill="none"
          opacity="1.000000"
          stroke="#000000"
          stroke-linecap="round"
          stroke-linejoin="round"
          stroke-width="7.000000"
          d="
M400.500000,541.500000 
	C402.585999,530.230713 397.271454,526.194946 389.506744,524.469604 
	C378.949097,522.123657 368.341431,520.485474 357.506805,519.878601 
	C349.002258,519.402283 340.478882,518.423035 332.008331,519.103821 
	C316.730499,520.331787 301.240326,520.203003 286.486237,525.461426 
	C278.327026,528.369385 275.204468,535.331970 279.000000,543.000000 
"
        />
        <path
          fill="none"
          opacity="1.000000"
          stroke="#000000"
          stroke-linecap="round"
          stroke-linejoin="round"
          stroke-width="3.000000"
          d="
M651.500000,667.500000 
	C643.106995,685.602234 631.918701,702.012024 618.841858,716.860718 
	C601.725159,736.296692 581.280273,751.690125 557.526184,762.557251 
	C534.248047,773.206665 510.594788,782.882019 486.490540,791.473511 
	C485.899048,791.684326 485.166656,791.500000 484.500000,791.500000 
"
        />
        <path
          fill="none"
          opacity="1.000000"
          stroke="#000000"
          stroke-linecap="round"
          stroke-linejoin="round"
          stroke-width="7.000000"
          d="
M476.500000,167.000000 
	C476.333344,166.666656 476.024902,166.335236 476.020386,165.999725 
	C475.829987,151.833374 475.651825,137.666824 475.512878,123.499870 
	C475.486084,120.765823 475.345978,118.350594 478.347992,116.279655 
	C480.341034,114.904762 481.581207,111.588326 480.013123,108.493355 
	C478.534637,105.575256 476.691162,103.431137 472.999695,103.468155 
	C463.500641,103.563416 453.999817,103.534103 444.500092,103.481735 
	C441.116577,103.463081 438.647186,105.586990 437.728821,108.084145 
	C436.873474,110.410072 436.388336,114.101501 439.071075,115.893608 
	C442.519379,118.197136 441.996124,121.322113 441.996826,124.500000 
	C442.002533,149.333328 441.943237,174.166946 442.064514,198.999680 
	C442.081604,202.501968 440.616211,206.000000 441.940857,209.569870 
	C441.166290,210.499695 440.318726,211.488235 439.502625,212.502106 
	C436.677856,216.011414 436.376068,220.404388 439.602142,223.389603 
	C441.948547,225.560791 442.012054,227.838715 442.010986,230.500000 
	C441.995087,269.833344 441.995117,309.166656 442.010986,348.500000 
	C442.012054,351.161285 441.940216,353.433380 439.603210,355.610779 
	C436.315338,358.674072 436.381042,363.080170 439.582306,366.421143 
	C441.794098,368.729401 442.024597,371.165405 442.022034,374.000031 
	C441.988800,410.833344 441.994019,447.666656 442.010834,484.500000 
	C442.012238,487.602936 441.956696,490.401764 439.599365,493.087219 
	C436.238983,496.915314 436.470612,500.993683 440.094452,504.399475 
	C441.810272,506.011993 442.005829,507.549652 442.005432,509.500000 
	C441.997986,545.166687 441.975769,580.833374 442.051636,616.499878 
	C442.056976,619.014709 441.308655,620.739807 439.567871,622.564758 
	C436.447235,625.836243 436.381042,630.080200 439.582306,633.421143 
	C441.794067,635.729431 442.025146,638.165344 442.022156,641.000000 
	C441.987427,673.666687 442.000000,706.333313 442.000000,739.250000 
	C452.833344,739.250000 463.666656,739.250000 474.908661,739.250000 
	C482.300568,743.771973 482.589325,750.105713 476.000000,755.000000 
"
        />
        <path
          fill="none"
          opacity="1.000000"
          stroke="#000000"
          stroke-linecap="round"
          stroke-linejoin="round"
          stroke-width="4.000000"
          d="
M619.500000,718.000000 
	C619.931091,722.734131 617.779114,727.002625 616.861938,731.471680 
	C615.190369,739.617249 613.681641,747.762024 612.334229,755.972778 
	C610.640564,766.294189 610.136536,776.684021 610.201416,786.998718 
	C610.295166,801.877686 610.656006,816.790649 613.788635,831.544861 
	C615.185669,838.124573 616.842041,844.744324 617.500000,851.500000 
"
        />
        <path
          fill="none"
          opacity="1.000000"
          stroke="#000000"
          stroke-linecap="round"
          stroke-linejoin="round"
          stroke-width="14.000000"
          d="
M646.500000,473.500000 
	C637.891907,461.089355 626.560791,451.673035 614.027039,443.458740 
	C600.303955,434.464935 585.305664,433.862579 570.022583,436.864960 
	C553.373291,440.135773 537.556396,446.105988 522.496033,453.992401 
	C518.856262,455.898376 515.166687,453.473358 511.500000,454.000000 
"
        />
        <path
          fill="none"
          opacity="1.000000"
          stroke="#000000"
          stroke-linecap="round"
          stroke-linejoin="round"
          stroke-width="2.000000"
          d="
M388.500000,378.500000 
	C375.404907,370.637634 361.651611,371.803162 347.479523,374.906555 
	C329.730896,378.793091 312.213135,383.838409 294.006775,385.571106 
	C283.217285,386.597961 273.018097,385.429962 263.500000,380.000000 
"
        />
        <path
          fill="none"
          opacity="1.000000"
          stroke="#000000"
          stroke-linecap="round"
          stroke-linejoin="round"
          stroke-width="2.000000"
          d="
M430.500000,242.500000 
	C432.054169,250.275620 434.088409,257.961090 434.033936,266.000244 
	C433.980316,273.912903 429.910553,280.190460 425.963226,286.476929 
	C419.602386,296.607178 413.231201,306.739563 408.065765,317.531494 
	C404.554840,324.866730 401.041351,332.307617 398.659698,340.049133 
	C395.742767,349.530334 397.347443,358.888855 402.500000,367.500000 
"
        />
        <path
          fill="none"
          opacity="1.000000"
          stroke="#000000"
          stroke-linecap="round"
          stroke-linejoin="round"
          stroke-width="2.000000"
          d="
M340.500000,216.500000 
	C328.929230,207.874084 316.475464,202.100037 301.497498,203.980103 
	C286.989594,205.801178 277.019501,214.561752 269.636261,226.087280 
	C258.584930,243.338821 254.980682,262.683105 256.555664,282.995697 
	C256.829407,286.526154 257.833313,290.000000 258.500000,293.500000 
"
        />
        <path
          fill="none"
          opacity="1.000000"
          stroke="#000000"
          stroke-linecap="round"
          stroke-linejoin="round"
          stroke-width="14.000000"
          d="
M507.500000,514.500000 
	C512.349915,513.226562 516.067566,514.885559 520.098328,517.867065 
	C530.274170,525.394043 542.052429,529.430786 554.500549,531.496643 
	C579.596008,535.661316 602.911865,530.503113 624.411255,517.354919 
	C629.240234,514.401733 634.179260,515.539001 639.020996,514.609375 
	C642.075134,514.023010 645.333313,514.500000 648.500000,514.500000 
"
        />
        <path
          fill="none"
          opacity="1.000000"
          stroke="#000000"
          stroke-linecap="round"
          stroke-linejoin="round"
          stroke-width="5.000000"
          d="
M494.500000,333.500000 
	C494.500000,351.000000 495.068054,368.524963 494.300781,385.991241 
	C493.787109,397.683990 495.452789,409.341888 494.032043,421.003906 
	C493.085419,428.774353 483.938263,439.281982 476.500000,437.500000 
"
        />
        <path
          fill="none"
          opacity="1.000000"
          stroke="#000000"
          stroke-linecap="round"
          stroke-linejoin="round"
          stroke-width="5.000000"
          d="
M361.500000,503.500000 
	C361.536713,501.845581 361.389771,500.347687 362.939331,498.933533 
	C365.978943,496.159546 368.689484,493.021118 371.493073,489.993591 
	C373.933990,487.357635 373.792175,484.400818 371.453003,482.046692 
	C362.066681,472.600403 352.559296,463.271729 342.964539,454.036865 
	C340.014099,451.197113 337.103516,452.358368 334.490906,454.990967 
	C327.517731,462.017578 320.517395,469.017548 313.488556,475.988464 
	C311.563660,477.897522 309.389252,479.561523 307.525604,481.524323 
	C304.638153,484.565460 304.536896,487.702118 307.550385,490.444641 
	C310.354797,492.996887 312.145844,496.497437 315.485992,498.523132 
	C317.374451,499.668396 316.986572,501.687378 317.000000,503.500000 
"
        />
        <path
          fill="none"
          opacity="1.000000"
          stroke="#000000"
          stroke-linecap="round"
          stroke-linejoin="round"
          stroke-width="3.000000"
          d="
M189.500000,238.500000 
	C192.000000,242.666672 194.320648,246.954773 197.041107,250.972153 
	C201.357224,257.345886 200.188370,264.657990 200.325623,271.503510 
	C200.706223,290.487030 208.051483,306.478516 218.843033,321.611938 
	C224.018127,328.869202 230.788422,333.075043 238.500000,336.500000 
"
        />
        <path
          fill="none"
          opacity="1.000000"
          stroke="#000000"
          stroke-linecap="round"
          stroke-linejoin="round"
          stroke-width="3.000000"
          d="
M185.500000,85.500000 
	C194.379013,92.066284 197.246170,102.613190 202.360031,111.579826 
	C209.998657,124.973358 215.899750,139.247696 220.476486,154.007294 
	C223.270081,163.016388 226.676971,171.762939 227.322845,181.478531 
	C227.663315,186.599945 231.333344,191.500000 233.500000,196.500000 
"
        />
        <path
          fill="none"
          opacity="1.000000"
          stroke="#000000"
          stroke-linecap="round"
          stroke-linejoin="round"
          stroke-width="3.000000"
          d="
M194.500000,94.500000 
	C195.731720,94.605652 196.798080,94.525604 198.054306,95.424080 
	C218.477631,110.031273 238.825760,124.756737 259.598389,138.855042 
	C266.489319,143.531906 272.854462,149.222427 280.965698,152.096771 
	C283.276794,152.915741 284.968079,155.089615 286.000000,157.500000 
"
        />
        <path
          fill="none"
          opacity="1.000000"
          stroke="#000000"
          stroke-linecap="round"
          stroke-linejoin="round"
          stroke-width="5.000000"
          d="
M775.500000,705.500000 
	C776.965698,705.024597 778.166809,704.059265 780.026672,704.943909 
	C796.589233,712.822327 807.766296,727.561707 807.700867,745.500732 
	C807.652588,758.736511 802.561462,769.161499 793.800720,778.483093 
	C794.892273,781.572754 797.896179,782.943481 799.561279,785.459412 
	C806.008484,795.201172 803.849609,806.313110 797.454834,813.962219 
	C794.581116,817.399536 791.184937,820.390625 787.500000,823.000000 
"
        />
        <path
          fill="none"
          opacity="1.000000"
          stroke="#000000"
          stroke-linecap="round"
          stroke-linejoin="round"
          stroke-width="3.000000"
          d="
M224.500000,347.000000 
	C224.600693,347.683167 224.274429,348.387939 224.985779,349.016113 
	C239.313812,361.668335 254.891708,372.072266 274.005707,375.972015 
	C281.777863,377.557739 289.624390,378.320312 297.500000,376.500000 
"
        />
        <path
          fill="none"
          opacity="1.000000"
          stroke="#000000"
          stroke-linecap="round"
          stroke-linejoin="round"
          stroke-width="2.000000"
          d="
M648.500000,603.500000 
	C642.863770,607.999084 636.960144,612.289490 632.557373,618.043884 
	C625.228149,627.623291 627.128479,638.749084 633.979797,645.520447 
	C640.993713,652.452515 652.197998,654.365173 662.035339,647.551025 
	C664.412598,645.904358 666.501648,644.026306 668.488708,641.989014 
	C669.611755,640.837585 670.603210,639.539734 672.500000,640.000000 
"
        />
        <path
          fill="none"
          opacity="1.000000"
          stroke="#000000"
          stroke-linecap="round"
          stroke-linejoin="round"
          stroke-width="5.000000"
          d="
M779.500000,704.500000 
	C779.061035,701.100586 781.067139,698.244446 781.604309,695.017334 
	C785.310303,672.753418 767.366455,655.880493 746.512024,658.112244 
	C742.400696,658.552246 737.790161,658.933960 735.000000,663.000000 
"
        />
        <path
          fill="none"
          opacity="1.000000"
          stroke="#000000"
          stroke-linecap="round"
          stroke-linejoin="round"
          stroke-width="5.000000"
          d="
M475.000000,858.500000 
	C475.333344,857.333313 475.974945,856.160767 475.952637,855.000916 
	C475.712402,842.501465 476.398193,830.002808 475.590973,817.494141 
	C475.098267,809.859253 475.500000,802.166687 475.500000,794.500000 
	C475.500000,781.833313 475.500946,769.166687 475.489624,756.500000 
	C475.489441,756.333252 475.333344,756.166687 475.250397,755.997925 
	C473.689026,754.674255 471.804932,755.009888 470.000000,755.006226 
	C462.666687,754.991333 455.333252,755.018677 448.000061,754.987244 
	C446.088898,754.979065 444.197693,754.920654 442.500000,756.000000 
"
        />
        <path
          fill="none"
          opacity="1.000000"
          stroke="#000000"
          stroke-linecap="round"
          stroke-linejoin="round"
          stroke-width="3.000000"
          d="
M574.500000,478.500000 
	C566.426025,477.816010 558.365173,477.413879 550.501465,480.004486 
	C541.872375,482.847229 534.020752,486.992065 528.017029,494.014587 
	C524.093384,498.604034 520.204834,503.236450 516.572815,508.054871 
	C515.372620,509.647156 514.694641,511.798676 515.000000,514.000000 
"
        />
        <path
          fill="none"
          opacity="1.000000"
          stroke="#000000"
          stroke-linecap="round"
          stroke-linejoin="round"
          stroke-width="3.000000"
          d="
M174.500000,269.500000 
	C179.569366,273.399658 184.479614,277.384369 188.582199,282.433197 
	C193.770325,288.817963 194.499283,296.841492 197.391434,304.043610 
	C201.679321,314.721405 206.007980,325.173828 215.478287,332.527954 
	C219.773010,335.863068 224.150757,339.189728 227.936188,343.062378 
	C236.755707,352.085114 247.742020,356.931030 259.500000,360.500000 
"
        />
        <path
          fill="none"
          opacity="1.000000"
          stroke="#000000"
          stroke-linecap="round"
          stroke-linejoin="round"
          stroke-width="5.000000"
          d="
M441.000000,740.500000 
	C436.049591,745.628479 435.801575,748.794373 440.577759,753.927673 
	C442.126312,755.592041 442.001251,757.213440 441.984467,758.999878 
	C441.845215,773.833435 441.203949,788.679688 441.620728,803.496582 
	C442.108429,820.836365 441.773132,838.167297 442.019745,855.499695 
	C442.033997,856.501892 442.333344,857.500000 442.500000,858.500000 
"
        />
        <path
          fill="none"
          opacity="1.000000"
          stroke="#000000"
          stroke-linecap="round"
          stroke-linejoin="round"
          stroke-width="6.000000"
          d="
M703.000000,696.500000 
	C685.666687,696.500000 668.333313,696.500000 651.000000,696.500000 
"
        />
        <path
          fill="none"
          opacity="1.000000"
          stroke="#000000"
          stroke-linecap="round"
          stroke-linejoin="round"
          stroke-width="3.000000"
          d="
M465.000000,30.500000 
	C470.265533,24.220177 470.409821,19.746353 465.499969,15.000022 
	C462.421051,12.023603 455.761505,11.511297 452.500000,14.000003 
	C448.510010,17.044540 447.149872,23.863270 450.072174,27.948378 
	C451.437256,29.856676 453.353027,31.323483 453.000000,34.000000 
"
        />
        <path
          fill="none"
          opacity="1.000000"
          stroke="#000000"
          stroke-linecap="round"
          stroke-linejoin="round"
          stroke-width="4.000000"
          d="
M475.000000,875.000000 
	C476.133606,887.653931 475.308655,900.334167 475.420990,913.000671 
	C475.451813,916.480774 477.121033,920.093079 475.000000,923.500000 
"
        />
        <path
          fill="none"
          opacity="1.000000"
          stroke="#000000"
          stroke-linecap="round"
          stroke-linejoin="round"
          stroke-width="5.000000"
          d="
M703.500000,703.500000 
	C703.328918,697.666687 704.457520,691.872498 703.552490,685.991943 
	C701.608093,673.357239 696.954529,662.369690 685.476196,655.539978 
	C677.115784,650.565491 673.600464,651.412964 667.116211,656.158752 
	C654.358276,665.495911 649.309021,678.920105 650.141418,694.492432 
	C650.257080,696.656067 650.056274,698.532471 649.500000,700.500000 
"
        />
        <path
          fill="none"
          opacity="1.000000"
          stroke="#000000"
          stroke-linecap="round"
          stroke-linejoin="round"
          stroke-width="5.000000"
          d="
M442.000000,875.500000 
	C441.760590,885.998840 442.252472,896.496643 441.616821,907.007080 
	C441.286621,912.466919 442.166656,918.000000 442.500000,923.500000 
"
        />
        <path
          fill="none"
          opacity="1.000000"
          stroke="#000000"
          stroke-linecap="round"
          stroke-linejoin="round"
          stroke-width="5.000000"
          d="
M677.500000,588.500000 
	C668.405396,590.310120 663.532532,596.522339 662.157104,605.025391 
	C660.767456,613.616150 663.208496,621.371948 671.008972,626.486267 
	C677.769470,630.918701 686.560486,628.817200 691.542297,621.528931 
	C698.030029,612.037781 696.495361,595.126526 682.500000,589.000000 
"
        />
        <path
          fill="none"
          opacity="1.000000"
          stroke="#000000"
          stroke-linecap="round"
          stroke-linejoin="round"
          stroke-width="3.000000"
          d="
M422.000000,231.500000 
	C428.236206,244.894989 427.813477,258.663879 423.819061,272.447571 
	C423.311737,274.198181 423.300262,275.826721 423.000000,277.500000 
"
        />
        <path
          fill="none"
          opacity="1.000000"
          stroke="#000000"
          stroke-linecap="round"
          stroke-linejoin="round"
          stroke-width="7.000000"
          d="
M396.500000,521.500000 
	C397.274414,510.766327 392.666046,507.740417 382.473999,506.168549 
	C365.129150,503.493439 347.569672,502.419250 330.002716,503.073181 
	C317.271149,503.547150 304.502106,504.611969 292.039978,507.192993 
	C284.302277,508.795593 280.462372,512.859924 282.500000,522.500000 
"
        />
        <path
          fill="none"
          opacity="1.000000"
          stroke="#000000"
          stroke-linecap="round"
          stroke-linejoin="round"
          stroke-width="3.000000"
          d="
M221.500000,326.500000 
	C218.863571,327.194122 217.166595,325.668854 215.495651,324.004364 
	C208.078644,316.616028 203.317398,307.622467 199.445267,298.022064 
	C197.956512,294.330963 197.784378,289.631836 193.000000,288.000000 
"
        />
        <path
          fill="none"
          opacity="1.000000"
          stroke="#000000"
          stroke-linecap="round"
          stroke-linejoin="round"
          stroke-width="2.000000"
          d="
M695.500000,721.500000 
	C697.756042,724.225464 699.693604,727.277466 704.002502,727.046814 
	C707.669861,726.850464 711.557129,724.293274 712.499939,721.000000 
	C713.288269,718.246582 710.827942,712.584717 707.987488,711.022705 
	C704.656677,709.191040 701.383301,709.307922 698.514221,712.015076 
	C696.680176,713.745605 695.013428,715.186951 695.799072,718.546997 
	C696.601013,721.976685 694.307556,724.914246 690.989990,726.478821 
	C687.377502,728.182312 684.165100,726.899353 680.500000,722.500000 
"
        />
        <path
          fill="none"
          opacity="1.000000"
          stroke="#000000"
          stroke-linecap="round"
          stroke-linejoin="round"
          stroke-width="3.000000"
          d="
M515.500061,675.000000 
	C515.333374,675.666687 515.388916,676.676331 514.967346,676.949524 
	C506.226013,682.613281 499.162781,690.626221 489.512665,695.027771 
	C485.349487,696.926575 481.073120,698.039062 476.500000,698.000000 
"
        />
        <path
          fill="none"
          opacity="1.000000"
          stroke="#000000"
          stroke-linecap="round"
          stroke-linejoin="round"
          stroke-width="3.000000"
          d="
M523.500000,669.500000 
	C521.315552,671.525940 518.585999,674.356384 516.064453,673.737427 
	C511.356476,672.581787 506.153809,672.791260 501.962311,669.548706 
	C499.142517,667.367371 496.587006,664.890015 493.566376,662.899292 
	C489.772888,660.399353 486.150909,659.550842 482.000671,661.501465 
	C480.224762,662.336121 478.338623,661.891663 476.500000,662.000000 
"
        />
        <path
          fill="none"
          opacity="1.000000"
          stroke="#000000"
          stroke-linecap="round"
          stroke-linejoin="round"
          stroke-width="4.000000"
          d="
M437.500000,951.500000 
	C437.888245,956.095947 440.770325,958.334412 445.001556,958.433716 
	C454.163147,958.648987 463.334351,958.579285 472.499542,958.464294 
	C476.657898,958.412109 480.302643,954.818420 480.499969,951.000000 
	C480.736145,946.428894 478.552612,944.173035 472.998291,943.514282 
	C463.187042,942.350647 453.331146,943.091919 443.499969,943.089050 
	C438.682098,943.087646 437.854675,947.267334 437.000000,951.000000 
"
        />
        <path
          fill="none"
          opacity="1.000000"
          stroke="#000000"
          stroke-linecap="round"
          stroke-linejoin="round"
          stroke-width="4.000000"
          d="
M478.000000,68.000000 
	C466.523438,66.216805 455.012329,66.865669 443.499512,67.490929 
	C441.270996,67.611954 439.188171,67.074699 438.328003,70.456245 
	C437.595795,73.334755 436.805389,75.742859 438.458527,78.524651 
	C440.217285,81.484222 442.719147,82.538872 446.000122,82.517799 
	C454.333099,82.464249 462.666687,82.515518 471.000000,82.495415 
	C478.569611,82.477158 482.073090,77.520912 479.489624,70.503822 
	C479.233704,69.808647 478.833344,69.166664 478.500000,68.500000 
"
        />
        <path
          fill="none"
          opacity="1.000000"
          stroke="#000000"
          stroke-linecap="round"
          stroke-linejoin="round"
          stroke-width="7.000000"
          d="
M439.000000,68.000000 
	C432.962311,58.669762 435.856506,44.730385 444.555878,38.579041 
	C455.156189,31.083555 465.263794,31.772676 474.283997,39.744419 
	C481.827789,46.411419 485.208801,56.852562 478.500000,68.000000 
"
        />
        <path
          fill="none"
          opacity="1.000000"
          stroke="#000000"
          stroke-linecap="round"
          stroke-linejoin="round"
          stroke-width="3.000000"
          d="
M786.500000,822.500000 
	C793.880615,834.349304 787.370239,849.677490 775.470032,853.404236 
	C774.069946,853.842712 773.307007,855.763123 770.790100,853.685791 
	C771.773438,861.829590 771.657043,868.579224 767.500000,874.500000 
"
        />
        <path
          fill="none"
          opacity="1.000000"
          stroke="#000000"
          stroke-linecap="round"
          stroke-linejoin="round"
          stroke-width="6.000000"
          d="
M198.500000,215.500000 
	C202.603821,222.011139 208.421509,227.516983 210.020203,235.495956 
	C210.952194,240.147415 210.233154,245.033737 212.375061,249.559128 
	C212.952133,250.778381 213.835205,251.498749 214.500000,252.500000 
"
        />
        <path
          fill="none"
          opacity="1.000000"
          stroke="#000000"
          stroke-linecap="round"
          stroke-linejoin="round"
          stroke-width="2.000000"
          d="
M513.000000,675.000000 
	C509.185242,676.981934 504.997223,676.900940 501.012817,676.398438 
	C494.056610,675.521057 487.232117,674.560425 480.471283,677.432434 
	C479.341736,677.912170 477.833344,677.500000 476.500000,677.500000 
"
        />
        <path
          fill="none"
          opacity="1.000000"
          stroke="#000000"
          stroke-linecap="round"
          stroke-linejoin="round"
          stroke-width="4.000000"
          d="
M717.500000,635.000000 
	C729.669678,635.000000 735.808228,639.287903 738.530579,649.491821 
	C739.377075,652.664795 738.740967,655.838196 739.000000,659.000000 
"
        />
        <path
          fill="none"
          opacity="1.000000"
          stroke="#000000"
          stroke-linecap="round"
          stroke-linejoin="round"
          stroke-width="2.000000"
          d="
M637.000000,614.500000 
	C637.562256,616.658203 635.745056,617.888367 634.957153,619.478760 
	C631.546814,626.362427 632.827698,635.168274 637.386658,639.130432 
	C642.231201,643.340881 647.034790,643.457947 652.500000,641.500000 
"
        />
        <path
          fill="none"
          opacity="1.000000"
          stroke="#000000"
          stroke-linecap="round"
          stroke-linejoin="round"
          stroke-width="2.000000"
          d="
M520.500000,602.500000 
	C522.400574,612.101013 518.613464,619.018738 510.516998,624.027466 
	C507.488983,625.900757 504.596741,627.274231 500.973602,625.555664 
	C499.538269,624.874817 500.172913,626.393066 500.000000,627.000000 
"
        />
        <path
          fill="none"
          opacity="1.000000"
          stroke="#000000"
          stroke-linecap="round"
          stroke-linejoin="round"
          stroke-width="4.000000"
          d="
M475.500000,370.000000 
	C473.510132,368.733856 471.340363,368.436523 468.999573,368.466553 
	C461.834106,368.558563 454.666656,368.497345 447.500000,368.501831 
	C445.687378,368.502960 443.773438,368.189240 442.500000,370.000000 
"
        />
        <path
          fill="none"
          opacity="1.000000"
          stroke="#000000"
          stroke-linecap="round"
          stroke-linejoin="round"
          stroke-width="4.000000"
          d="
M442.500000,352.500000 
	C443.900391,353.281586 445.382385,353.537476 447.000183,353.525940 
	C454.999786,353.468933 463.000214,353.468964 470.999817,353.525970 
	C472.617615,353.537476 474.099609,353.281586 475.500000,352.500000 
"
        />
        <path
          fill="none"
          opacity="1.000000"
          stroke="#000000"
          stroke-linecap="round"
          stroke-linejoin="round"
          stroke-width="4.000000"
          d="
M442.500000,619.500000 
	C444.198120,620.576965 446.091919,620.517700 448.000031,620.510498 
	C454.999939,620.483887 462.000793,620.440369 468.999542,620.533386 
	C471.340454,620.564514 473.510132,620.266113 475.500000,619.000000 
"
        />
        <path
          fill="none"
          opacity="1.000000"
          stroke="#000000"
          stroke-linecap="round"
          stroke-linejoin="round"
          stroke-width="4.000000"
          d="
M475.500000,637.000000 
	C473.510132,635.733887 471.340363,635.436584 468.999573,635.466553 
	C461.834106,635.558594 454.666656,635.497314 447.500000,635.501831 
	C445.687378,635.502930 443.773438,635.189270 442.500000,637.000000 
"
        />
        <path
          fill="none"
          opacity="1.000000"
          stroke="#000000"
          stroke-linecap="round"
          stroke-linejoin="round"
          stroke-width="4.000000"
          d="
M442.500000,938.500000 
	C452.500000,938.500000 462.500153,938.469177 472.499939,938.514099 
	C476.967194,938.534180 480.087585,936.067688 480.500000,932.000000 
	C480.935852,927.700867 477.998169,923.711853 473.497620,923.584106 
	C463.838745,923.309998 454.166656,923.502991 444.500000,923.498291 
	C441.194611,923.496704 438.611572,925.503540 437.719757,928.076172 
	C436.901215,930.437439 436.672821,933.675720 438.999908,936.000061 
	C440.000488,936.999512 441.000000,938.000000 442.000000,939.000000 
"
        />
        <path
          fill="none"
          opacity="1.000000"
          stroke="#000000"
          stroke-linecap="round"
          stroke-linejoin="round"
          stroke-width="4.000000"
          d="
M442.500000,489.500000 
	C444.198120,490.576965 446.091919,490.517761 448.000031,490.510498 
	C454.999939,490.483948 462.000061,490.484344 468.999969,490.509399 
	C471.142242,490.517059 473.297272,490.689056 475.000000,489.000000 
"
        />
        <path
          fill="none"
          opacity="1.000000"
          stroke="#000000"
          stroke-linecap="round"
          stroke-linejoin="round"
          stroke-width="4.000000"
          d="
M475.000000,226.500000 
	C473.719086,225.180801 472.065887,225.507278 470.500000,225.505020 
	C462.833344,225.493912 455.166443,225.531006 447.500153,225.476715 
	C445.731659,225.464203 444.046204,225.564377 442.500000,226.500000 
"
        />
        <path
          fill="none"
          opacity="1.000000"
          stroke="#000000"
          stroke-linecap="round"
          stroke-linejoin="round"
          stroke-width="4.000000"
          d="
M475.000000,119.000000 
	C464.166656,118.167610 453.333344,118.171333 442.500000,119.000000 
"
        />
        <path
          fill="none"
          opacity="1.000000"
          stroke="#000000"
          stroke-linecap="round"
          stroke-linejoin="round"
          stroke-width="4.000000"
          d="
M442.500000,209.500000 
	C443.900391,210.281586 445.382416,210.537094 447.000183,210.525925 
	C455.166443,210.469513 463.333344,210.500641 471.500000,210.499374 
	C472.760529,210.499176 474.083191,210.707886 475.000000,209.500000 
"
        />
        <path
          fill="none"
          opacity="1.000000"
          stroke="#000000"
          stroke-linecap="round"
          stroke-linejoin="round"
          stroke-width="4.000000"
          d="
M203.500000,206.500000 
	C204.833328,207.833328 205.970551,209.485641 207.533020,210.446304 
	C215.479156,215.332062 216.440308,223.763748 217.231598,231.527359 
	C217.976746,238.838211 219.121918,246.684906 214.147247,253.605835 
	C212.984634,255.223282 213.666672,258.166656 213.500000,260.500000 
"
        />
        <path
          fill="none"
          opacity="1.000000"
          stroke="#000000"
          stroke-linecap="round"
          stroke-linejoin="round"
          stroke-width="4.000000"
          d="
M443.000000,858.500000 
	C445.194672,860.607971 447.665680,858.958374 450.000183,858.976990 
	C457.666351,859.038208 465.333679,858.956360 472.999847,859.017456 
	C477.126953,859.050354 480.361115,862.366089 480.500031,866.500000 
	C480.647003,870.873535 477.475586,874.418884 472.999634,874.467163 
	C463.167450,874.573181 453.332306,874.579651 443.500641,874.450317 
	C440.642273,874.412781 438.443665,872.026611 437.736664,869.920532 
	C436.954956,867.591797 436.680817,864.416260 438.541748,862.032593 
	C439.468628,860.845398 440.833344,860.000000 442.000000,859.000000 
"
        />
        <path
          fill="none"
          opacity="1.000000"
          stroke="#000000"
          stroke-linecap="round"
          stroke-linejoin="round"
          stroke-width="3.000000"
          d="
M715.500000,635.500000 
	C718.203064,631.402649 715.742493,627.671448 714.438538,624.021973 
	C711.378967,615.458618 704.692261,611.539001 696.000000,610.500000 
"
        />
        <path
          fill="none"
          opacity="1.000000"
          stroke="#000000"
          stroke-linecap="round"
          stroke-linejoin="round"
          stroke-width="3.000000"
          d="
M420.500000,211.500000 
	C419.023926,220.141479 420.841919,228.844193 420.021545,237.502045 
	C419.837219,239.447556 420.418701,241.553589 418.500000,243.000000 
"
        />
        <path
          fill="none"
          opacity="1.000000"
          stroke="#000000"
          stroke-linecap="round"
          stroke-linejoin="round"
          stroke-width="2.000000"
          d="
M652.500000,711.000000 
	C646.732971,707.343079 641.239929,708.578674 639.524841,714.007874 
	C638.672974,716.704712 638.651550,719.214844 640.950623,721.548645 
	C643.895874,724.538269 646.991211,724.666748 650.500000,723.000000 
"
        />
        <path
          fill="none"
          opacity="1.000000"
          stroke="#000000"
          stroke-linecap="round"
          stroke-linejoin="round"
          stroke-width="11.000000"
          d="
M474.500000,965.500000 
	C471.713135,967.751648 468.285309,966.332520 465.513031,966.208496 
	C458.331299,965.887146 451.159637,966.469360 444.000000,966.000000 
"
        />
        <path
          fill="none"
          opacity="1.000000"
          stroke="#000000"
          stroke-linecap="round"
          stroke-linejoin="round"
          stroke-width="3.000000"
          d="
M407.000000,214.000000 
	C409.067749,221.556915 414.018799,227.860870 416.112335,235.469086 
	C417.516144,240.570663 418.313202,245.434006 416.500000,250.500000 
"
        />
        <path
          fill="none"
          opacity="1.000000"
          stroke="#000000"
          stroke-linecap="round"
          stroke-linejoin="round"
          stroke-width="3.000000"
          d="
M275.500000,131.500000 
	C276.499756,135.856201 278.330811,139.452255 281.884247,142.629471 
	C287.664825,147.798096 291.999207,154.474625 298.481842,159.025879 
	C304.407227,163.185928 310.711029,166.894745 315.500000,172.500000 
"
        />
        <path
          fill="none"
          opacity="1.000000"
          stroke="#000000"
          stroke-linecap="round"
          stroke-linejoin="round"
          stroke-width="3.000000"
          d="
M305.000000,152.000000 
	C310.717804,156.409988 315.151520,162.244522 321.409546,166.145111 
	C324.412231,168.016647 327.150085,168.926392 330.500000,168.500000 
"
        />
        <path
          fill="none"
          opacity="1.000000"
          stroke="#000000"
          stroke-linecap="round"
          stroke-linejoin="round"
          stroke-width="4.000000"
          d="
M215.500000,197.000000 
	C215.500000,198.333328 215.064514,199.866943 215.570633,200.967514 
	C218.872238,208.146973 220.985077,215.515167 221.664398,223.485992 
	C222.153488,229.224609 224.166656,234.833328 225.500000,240.500000 
"
        />
        <path
          fill="none"
          opacity="1.000000"
          stroke="#000000"
          stroke-linecap="round"
          stroke-linejoin="round"
          stroke-width="4.000000"
          d="
M219.500000,178.000000 
	C219.605804,183.266022 223.626328,187.285110 224.049866,192.495941 
	C224.325409,195.886139 225.438034,199.255234 223.500000,202.500000 
"
        />
        <path
          fill="none"
          opacity="1.000000"
          stroke="#000000"
          stroke-linecap="round"
          stroke-linejoin="round"
          stroke-width="7.000000"
          d="
M497.000000,621.500000 
	C493.878784,620.368713 491.130432,621.076843 488.485352,622.979614 
	C484.284729,626.001465 480.253235,628.919678 477.767303,633.883484 
	C476.713318,635.987976 476.004028,637.785706 476.003174,640.000000 
	C475.997223,655.833313 476.064911,671.667053 475.982391,687.499878 
	C475.893799,704.500305 475.666687,721.500000 475.500000,738.500000 
"
        />
        <path
          fill="none"
          opacity="1.000000"
          stroke="#000000"
          stroke-linecap="round"
          stroke-linejoin="round"
          stroke-width="3.000000"
          d="
M369.500000,194.500000 
	C360.862305,185.841751 352.560974,176.901199 346.000000,166.500000 
"
        />
        <path
          fill="none"
          opacity="1.000000"
          stroke="#000000"
          stroke-linecap="round"
          stroke-linejoin="round"
          stroke-width="4.000000"
          d="
M682.500000,629.500000 
	C683.868896,637.366028 684.706909,645.220703 682.000000,653.000000 
"
        />
        <path
          fill="none"
          opacity="1.000000"
          stroke="#000000"
          stroke-linecap="round"
          stroke-linejoin="round"
          stroke-width="4.000000"
          d="
M210.000000,247.000000 
	C206.711426,252.127991 207.596283,257.888550 207.501968,263.500031 
	C207.487961,264.333130 207.732010,265.251007 207.464386,265.987061 
	C204.509933,274.112305 209.808807,279.431519 214.067657,284.947754 
	C216.353500,287.908478 219.333328,290.333344 222.000000,293.000000 
"
        />
        <path
          fill="none"
          opacity="1.000000"
          stroke="#000000"
          stroke-linecap="round"
          stroke-linejoin="round"
          stroke-width="11.000000"
          d="
M458.750000,796.000000 
	C458.750000,803.333313 458.750000,810.666687 458.750000,818.000000 
"
        />
        <path
          fill="none"
          opacity="1.000000"
          stroke="#000000"
          stroke-linecap="round"
          stroke-linejoin="round"
          stroke-width="3.000000"
          d="
M442.500000,82.500000 
	C441.451050,89.478996 442.253143,96.502060 442.000000,103.500000 
"
        />
        <path
          fill="none"
          opacity="1.000000"
          stroke="#000000"
          stroke-linecap="round"
          stroke-linejoin="round"
          stroke-width="3.000000"
          d="
M367.000000,179.500000 
	C369.662445,182.752106 370.419678,186.951904 372.486633,190.507767 
	C376.120331,196.758987 382.136108,200.901733 386.500000,206.500000 
"
        />
        <path
          fill="none"
          opacity="1.000000"
          stroke="#000000"
          stroke-linecap="round"
          stroke-linejoin="round"
          stroke-width="3.000000"
          d="
M475.500000,82.500000 
	C476.612335,89.364525 475.820221,96.182610 475.000000,103.000000 
"
        />
        <path
          fill="none"
          opacity="1.000000"
          stroke="#000000"
          stroke-linecap="round"
          stroke-linejoin="round"
          stroke-width="3.000000"
          d="
M406.500000,199.500000 
	C405.028107,205.250031 406.910828,211.290375 404.989746,216.996552 
	C404.644928,218.020737 404.166687,219.000000 403.750000,220.000000 
"
        />
        <path
          fill="none"
          opacity="1.000000"
          stroke="#000000"
          stroke-linecap="round"
          stroke-linejoin="round"
          stroke-width="3.000000"
          d="
M391.500000,191.500000 
	C393.463470,201.754501 398.210999,210.913101 403.116028,219.936935 
	C404.645813,222.751266 404.414886,225.740723 405.500000,228.500000 
"
        />
        <path
          fill="none"
          opacity="1.000000"
          stroke="#000000"
          stroke-linecap="round"
          stroke-linejoin="round"
          stroke-width="3.000000"
          d="
M204.500000,335.500000 
	C210.500000,338.833344 216.377792,342.420166 222.550079,345.396149 
	C225.775742,346.951416 229.269608,348.306366 233.000000,348.500000 
"
        />
        <path
          fill="none"
          opacity="1.000000"
          stroke="#000000"
          stroke-linecap="round"
          stroke-linejoin="round"
          stroke-width="2.000000"
          d="
M432.000000,258.500000 
	C430.393677,264.541473 429.875244,271.094360 425.435272,275.940704 
	C422.113739,279.566223 419.370392,283.565247 416.500000,287.500000 
"
        />
        <path
          fill="none"
          opacity="1.000000"
          stroke="#000000"
          stroke-linecap="round"
          stroke-linejoin="round"
          stroke-width="2.000000"
          d="
M520.500000,455.500000 
	C520.749512,463.124756 514.339600,467.419800 511.500000,473.500000 
"
        />
        <path
          fill="none"
          opacity="1.000000"
          stroke="#000000"
          stroke-linecap="round"
          stroke-linejoin="round"
          stroke-width="2.000000"
          d="
M281.500000,379.000000 
	C270.678009,380.866364 260.288727,379.751617 250.500000,374.500000 
"
        />
        <path
          fill="none"
          opacity="1.000000"
          stroke="#000000"
          stroke-linecap="round"
          stroke-linejoin="round"
          stroke-width="5.000000"
          d="
M205.500000,164.500000 
	C212.925079,169.641571 218.718872,176.798248 226.500000,181.500000 
"
        />
        <path
          fill="none"
          opacity="1.000000"
          stroke="#000000"
          stroke-linecap="round"
          stroke-linejoin="round"
          stroke-width="3.000000"
          d="
M679.500000,722.000000 
	C675.903809,727.366394 671.562866,728.813354 667.500000,726.000000 
	C664.693909,724.057007 663.239990,718.612671 665.075317,715.038696 
	C666.626587,712.017822 669.721313,710.735046 672.991699,711.079163 
	C676.971069,711.497803 679.806030,715.010559 679.993042,719.000305 
	C680.039795,719.998108 680.000000,721.000000 680.000000,722.000000 
"
        />
        <path
          fill="none"
          opacity="1.000000"
          stroke="#000000"
          stroke-linecap="round"
          stroke-linejoin="round"
          stroke-width="2.000000"
          d="
M665.000000,714.000000 
	C664.333313,713.500000 663.689026,712.966492 662.996338,712.505493 
	C658.797302,709.710938 654.810303,710.078552 651.999939,713.499939 
	C649.468140,716.582214 649.234009,721.499634 651.500000,724.000000 
	C654.526367,727.339478 658.555542,727.343262 662.994751,723.993103 
	C663.367432,723.711914 663.666687,723.333313 664.000000,723.000000 
"
        />
        <path
          fill="none"
          opacity="1.000000"
          stroke="#000000"
          stroke-linecap="round"
          stroke-linejoin="round"
          stroke-width="3.000000"
          d="
M346.500000,177.500000 
	C342.196167,176.826401 339.423004,173.825150 336.483551,171.017227 
	C333.837158,168.489243 333.306671,168.468445 331.000000,170.000000 
"
        />
        <path
          fill="none"
          opacity="1.000000"
          stroke="#000000"
          stroke-linecap="round"
          stroke-linejoin="round"
          stroke-width="3.000000"
          d="
M695.000000,715.000000 
	C689.110168,709.585449 687.942810,709.585449 680.000000,715.000000 
"
        />
        <path
          fill="none"
          opacity="1.000000"
          stroke="#000000"
          stroke-linecap="round"
          stroke-linejoin="round"
          stroke-width="7.000000"
          d="
M327.500000,154.500000 
	C328.018585,159.168030 328.605164,163.818420 331.000000,168.000000 
"
        />
        <path
          fill="none"
          opacity="1.000000"
          stroke="#000000"
          stroke-linecap="round"
          stroke-linejoin="round"
          stroke-width="11.000000"
          d="
M459.000000,151.500000 
	C459.000000,160.166672 459.000000,168.833328 459.000000,177.500000 
"
        />
        <path
          fill="none"
          opacity="1.000000"
          stroke="#000000"
          stroke-linecap="round"
          stroke-linejoin="round"
          stroke-width="3.000000"
          d="
M383.000000,195.000000 
	C385.695923,196.554718 385.626953,199.704285 387.069061,201.955765 
	C388.203400,203.726746 388.619354,206.171188 391.000000,207.000000 
"
        />
        <path
          fill="none"
          opacity="1.000000"
          stroke="#000000"
          stroke-linecap="round"
          stroke-linejoin="round"
          stroke-width="5.000000"
          d="
M206.500000,184.500000 
	C210.545502,189.112183 213.613922,194.458801 218.893723,198.151932 
	C223.166824,201.140900 225.246414,206.078888 225.500000,211.500000 
"
        />
        <path
          fill="none"
          opacity="1.000000"
          stroke="#000000"
          stroke-linecap="round"
          stroke-linejoin="round"
          stroke-width="11.000000"
          d="
M459.000000,678.000000 
	C458.850311,685.167053 459.352325,692.349304 458.500000,699.500000 
"
        />
        <path
          fill="none"
          opacity="1.000000"
          stroke="#000000"
          stroke-linecap="round"
          stroke-linejoin="round"
          stroke-width="11.000000"
          d="
M459.000000,420.000000 
	C458.833313,427.166656 458.666656,434.333344 458.500000,441.500000 
"
        />
        <path
          fill="none"
          opacity="1.000000"
          stroke="#000000"
          stroke-linecap="round"
          stroke-linejoin="round"
          stroke-width="4.000000"
          d="
M675.500000,629.000000 
	C675.500000,629.833313 675.809692,630.842224 675.452209,631.472900 
	C671.693115,638.105896 673.180359,645.070129 674.000000,652.000000 
"
        />
        <path
          fill="none"
          opacity="1.000000"
          stroke="#000000"
          stroke-linecap="round"
          stroke-linejoin="round"
          stroke-width="4.000000"
          d="
M381.500000,183.500000 
	C381.500000,185.333328 381.049500,187.314270 381.591888,188.969894 
	C382.796204,192.645798 382.190918,196.048767 381.000000,199.500000 
"
        />
        <path
          fill="none"
          opacity="1.000000"
          stroke="#000000"
          stroke-linecap="round"
          stroke-linejoin="round"
          stroke-width="3.000000"
          d="
M366.500000,167.500000 
	C366.781433,174.225281 364.527863,180.760422 365.000000,187.500000 
"
        />
        <path
          fill="none"
          opacity="1.000000"
          stroke="#000000"
          stroke-linecap="round"
          stroke-linejoin="round"
          stroke-width="3.000000"
          d="
M302.500000,145.500000 
	C304.426788,151.174454 304.025055,157.248077 305.500000,163.000000 
"
        />
        <path
          fill="none"
          opacity="1.000000"
          stroke="#000000"
          stroke-linecap="round"
          stroke-linejoin="round"
          stroke-width="4.000000"
          d="
M279.000000,141.000000 
	C277.033752,144.703278 281.571411,147.430954 280.500000,151.000000 
"
        />
        <path
          fill="none"
          opacity="1.000000"
          stroke="#000000"
          stroke-linecap="round"
          stroke-linejoin="round"
          stroke-width="3.000000"
          d="
M393.000000,200.500000 
	C389.486969,206.805832 393.420959,212.016525 395.500000,217.500000 
"
        />
        <path
          fill="none"
          opacity="1.000000"
          stroke="#000000"
          stroke-linecap="round"
          stroke-linejoin="round"
          stroke-width="3.000000"
          d="
M345.500000,158.500000 
	C346.207397,163.977325 344.505096,169.374313 346.190704,175.091187 
	C347.512207,179.573013 351.789032,180.154129 353.500000,183.500000 
"
        />
        <path
          fill="none"
          opacity="1.000000"
          stroke="#000000"
          stroke-linecap="round"
          stroke-linejoin="round"
          stroke-width="2.000000"
          d="
M480.500000,793.500000 
	C479.000000,793.500000 477.500000,793.500000 476.000000,793.500000 
"
        />
        <path
          fill="none"
          opacity="1.000000"
          stroke="#000000"
          stroke-linecap="round"
          stroke-linejoin="round"
          stroke-width="2.000000"
          d="
M332.000000,171.000000 
	C332.402832,172.930496 333.988068,173.678604 335.500000,174.500000 
"
        />
        <path
          fill="none"
          opacity="1.000000"
          stroke="#000000"
          stroke-linecap="round"
          stroke-linejoin="round"
          stroke-width="2.000000"
          d="
M442.000031,959.000000 
	C441.833374,960.166687 441.666687,961.333313 441.500031,962.500000 
"
        />
        <path
          fill="none"
          opacity="1.000000"
          stroke="#000000"
          stroke-linecap="round"
          stroke-linejoin="round"
          stroke-width="2.000000"
          d="
M475.000000,959.000000 
	C475.166656,960.166687 475.333344,961.333313 475.500000,962.500000 
"
        />
      </svg>